<svg width="291" height="53" viewBox="0 0 291 53" fill="none" xmlns="http://www.w3.org/2000/svg">
<path d="M197.124 14.345C196.193 14.345 195.366 14.135 194.642 13.7151C193.928 13.286 193.364 12.7017 192.95 11.9622C192.546 11.2136 192.344 10.3554 192.344 9.3877C192.344 8.41998 192.546 7.56638 192.95 6.8269C193.354 6.07828 193.914 5.494 194.628 5.07404C195.342 4.64496 196.16 4.43042 197.081 4.43042C197.636 4.43042 198.176 4.53084 198.703 4.73169C199.239 4.92341 199.723 5.19729 200.155 5.55334C200.587 5.90026 200.921 6.30195 201.156 6.75842L200.409 7.21033C200.211 6.81777 199.934 6.47541 199.577 6.18327C199.229 5.882 198.839 5.6492 198.407 5.48487C197.974 5.31141 197.532 5.22468 197.081 5.22468C196.339 5.22468 195.676 5.4027 195.093 5.75875C194.52 6.1148 194.069 6.60779 193.74 7.23772C193.411 7.85852 193.246 8.57518 193.246 9.3877C193.246 10.2093 193.411 10.9351 193.74 11.5651C194.069 12.195 194.525 12.688 195.107 13.044C195.7 13.4001 196.372 13.5781 197.124 13.5781C197.584 13.5781 198.031 13.4868 198.463 13.3042C198.895 13.1125 199.286 12.8523 199.633 12.5237C199.991 12.195 200.268 11.8207 200.465 11.4007L201.213 11.8526C200.968 12.3365 200.63 12.7702 200.197 13.1536C199.774 13.5279 199.295 13.82 198.759 14.03C198.223 14.24 197.678 14.345 197.124 14.345Z" fill="white"/>
<path d="M205.876 14.345C205.199 14.345 204.598 14.1943 204.071 13.8931C203.554 13.5827 203.145 13.1582 202.845 12.6195C202.553 12.0809 202.408 11.4601 202.408 10.7571C202.408 10.0541 202.553 9.43335 202.845 8.89471C203.136 8.35607 203.535 7.93612 204.043 7.63485C204.56 7.32445 205.148 7.16925 205.806 7.16925C206.473 7.16925 207.037 7.32901 207.498 7.64854C207.968 7.95894 208.325 8.39259 208.569 8.94949C208.814 9.49725 208.936 10.1317 208.936 10.853H202.915L203.239 10.5928C203.239 11.2227 203.347 11.7614 203.564 12.2087C203.78 12.656 204.085 12.9984 204.48 13.2358C204.884 13.4731 205.35 13.5918 205.876 13.5918C206.421 13.5918 206.882 13.464 207.258 13.2084C207.643 12.9436 207.944 12.6058 208.16 12.195L208.865 12.6195C208.687 12.9573 208.452 13.2586 208.16 13.5233C207.878 13.779 207.545 13.9798 207.159 14.1259C206.774 14.2719 206.346 14.345 205.876 14.345ZM203.31 10.3463L202.957 10.0998H208.386L208.033 10.36C208.033 9.87612 207.939 9.45161 207.751 9.08643C207.573 8.72125 207.319 8.43824 206.99 8.23739C206.661 8.02742 206.266 7.92243 205.806 7.92243C205.354 7.92243 204.936 8.02742 204.551 8.23739C204.175 8.43824 203.874 8.72125 203.648 9.08643C203.423 9.44248 203.31 9.86243 203.31 10.3463Z" fill="white"/>
<path d="M210.486 14.1807V7.33358H211.276L211.332 8.59344V14.1807H210.486ZM215.548 14.1807V10.6749H216.394V14.1807H215.548ZM215.548 10.6749C215.548 9.91721 215.454 9.34205 215.266 8.94949C215.088 8.55692 214.838 8.29217 214.519 8.15523C214.209 8.00916 213.856 7.93612 213.461 7.93612C212.794 7.93612 212.272 8.17805 211.896 8.66191C211.52 9.13664 211.332 9.80309 211.332 10.6613H210.811C210.811 9.9309 210.919 9.30553 211.135 8.78516C211.351 8.26478 211.666 7.86765 212.08 7.59377C212.503 7.31075 213.015 7.16925 213.616 7.16925C214.162 7.16925 214.641 7.2788 215.055 7.49791C215.478 7.70788 215.807 8.04567 216.042 8.51127C216.286 8.97688 216.403 9.59311 216.394 10.36V10.6749H215.548Z" fill="white"/>
<path d="M220.846 14.345C220.197 14.345 219.689 14.1807 219.323 13.852C218.956 13.5142 218.773 13.0395 218.773 12.4278V5.19729H219.619V12.4278C219.619 12.793 219.727 13.0806 219.943 13.2905C220.159 13.4914 220.46 13.5918 220.846 13.5918C220.958 13.5918 221.066 13.5781 221.17 13.5507C221.283 13.5142 221.442 13.4275 221.649 13.2905L222.002 14.0026C221.748 14.1487 221.536 14.24 221.367 14.2765C221.198 14.3222 221.024 14.345 220.846 14.345ZM217.518 8.08676V7.33358H221.861V8.08676H217.518Z" fill="white"/>
<path d="M226.53 14.345C225.853 14.345 225.252 14.1943 224.725 13.8931C224.208 13.5827 223.799 13.1582 223.499 12.6195C223.207 12.0809 223.062 11.4601 223.062 10.7571C223.062 10.0541 223.207 9.43335 223.499 8.89471C223.79 8.35607 224.19 7.93612 224.697 7.63485C225.214 7.32445 225.802 7.16925 226.46 7.16925C227.127 7.16925 227.691 7.32901 228.152 7.64854C228.622 7.95894 228.979 8.39259 229.223 8.94949C229.468 9.49725 229.59 10.1317 229.59 10.853H223.569L223.893 10.5928C223.893 11.2227 224.002 11.7614 224.218 12.2087C224.434 12.656 224.739 12.9984 225.134 13.2358C225.538 13.4731 226.004 13.5918 226.53 13.5918C227.075 13.5918 227.536 13.464 227.912 13.2084C228.297 12.9436 228.598 12.6058 228.814 12.195L229.519 12.6195C229.341 12.9573 229.106 13.2586 228.814 13.5233C228.532 13.779 228.199 13.9798 227.813 14.1259C227.428 14.2719 227 14.345 226.53 14.345ZM223.964 10.3463L223.611 10.0998H229.04L228.687 10.36C228.687 9.87612 228.593 9.45161 228.405 9.08643C228.227 8.72125 227.973 8.43824 227.644 8.23739C227.315 8.02742 226.92 7.92243 226.46 7.92243C226.008 7.92243 225.59 8.02742 225.205 8.23739C224.829 8.43824 224.528 8.72125 224.302 9.08643C224.077 9.44248 223.964 9.86243 223.964 10.3463Z" fill="white"/>
<path d="M231.493 10.4285C231.493 9.68897 231.634 9.09099 231.916 8.63452C232.207 8.17805 232.578 7.84483 233.03 7.63485C233.49 7.41574 233.974 7.30619 234.482 7.30619V8.05937C234.068 8.05937 233.669 8.1324 233.283 8.27847C232.907 8.41542 232.597 8.65278 232.353 8.99057C232.108 9.31923 231.986 9.77114 231.986 10.3463L231.493 10.4285ZM231.14 14.1807V7.33358H231.986V14.1807H231.14Z" fill="white"/>
<path d="M239.914 14.1807V6.51193C239.914 5.80896 240.079 5.28859 240.408 4.9508C240.737 4.60388 241.235 4.43042 241.902 4.43042C242.053 4.43042 242.231 4.45781 242.438 4.51258C242.645 4.56736 242.885 4.64953 243.157 4.75908L242.847 5.45748C242.603 5.36619 242.396 5.29772 242.227 5.25207C242.067 5.20642 241.935 5.1836 241.832 5.1836C241.475 5.1836 241.207 5.29315 241.028 5.51226C240.849 5.73136 240.76 6.06459 240.76 6.51193V14.1807H239.914ZM238.575 8.08676V7.33358H242.917V8.08676H238.575Z" fill="white"/>
<path d="M247.336 14.345C246.659 14.345 246.057 14.1943 245.531 13.8931C245.014 13.5827 244.605 13.1582 244.304 12.6195C244.013 12.0809 243.867 11.4601 243.867 10.7571C243.867 10.0541 244.013 9.43335 244.304 8.89471C244.596 8.35607 245 7.93612 245.517 7.63485C246.043 7.32445 246.64 7.16925 247.307 7.16925C247.984 7.16925 248.581 7.32445 249.098 7.63485C249.624 7.93612 250.033 8.35607 250.325 8.89471C250.616 9.43335 250.762 10.0541 250.762 10.7571C250.762 11.4601 250.616 12.0809 250.325 12.6195C250.033 13.1582 249.629 13.5827 249.112 13.8931C248.595 14.1943 248.003 14.345 247.336 14.345ZM247.336 13.5918C247.843 13.5918 248.29 13.4731 248.675 13.2358C249.06 12.9893 249.361 12.656 249.577 12.2361C249.803 11.807 249.916 11.314 249.916 10.7571C249.916 10.2002 249.803 9.71179 249.577 9.29184C249.361 8.86276 249.056 8.52953 248.661 8.29217C248.266 8.04567 247.815 7.92243 247.307 7.92243C246.8 7.92243 246.349 8.04567 245.954 8.29217C245.568 8.52953 245.263 8.86276 245.037 9.29184C244.821 9.71179 244.713 10.2002 244.713 10.7571C244.713 11.314 244.826 11.807 245.051 12.2361C245.277 12.656 245.587 12.9893 245.982 13.2358C246.377 13.4731 246.828 13.5918 247.336 13.5918Z" fill="white"/>
<path d="M252.808 10.4285C252.808 9.68897 252.949 9.09099 253.231 8.63452C253.522 8.17805 253.893 7.84483 254.345 7.63485C254.805 7.41574 255.289 7.30619 255.797 7.30619V8.05937C255.383 8.05937 254.984 8.1324 254.598 8.27847C254.222 8.41542 253.912 8.65278 253.668 8.99057C253.423 9.31923 253.301 9.77114 253.301 10.3463L252.808 10.4285ZM252.455 14.1807V7.33358H253.301V14.1807H252.455Z" fill="white"/>
<path d="M215.548 10.6749V14.1807H216.394V10.6749M215.548 10.6749H216.394M215.548 10.6749C215.548 9.91721 215.454 9.34205 215.266 8.94949C215.088 8.55692 214.838 8.29217 214.519 8.15523C214.209 8.00916 213.856 7.93612 213.461 7.93612C212.794 7.93612 212.272 8.17805 211.896 8.66191C211.52 9.13664 211.332 9.80309 211.332 10.6613H210.811C210.811 9.9309 210.919 9.30553 211.135 8.78516C211.351 8.26478 211.666 7.86765 212.08 7.59377C212.503 7.31075 213.015 7.16925 213.616 7.16925C214.162 7.16925 214.641 7.2788 215.055 7.49791C215.478 7.70788 215.807 8.04567 216.042 8.51127C216.286 8.97688 216.403 9.59311 216.394 10.36V10.6749M197.124 14.345C196.193 14.345 195.366 14.135 194.642 13.7151C193.928 13.286 193.364 12.7017 192.95 11.9622C192.546 11.2136 192.344 10.3554 192.344 9.3877C192.344 8.41998 192.546 7.56638 192.95 6.8269C193.354 6.07828 193.914 5.494 194.628 5.07404C195.342 4.64496 196.16 4.43042 197.081 4.43042C197.636 4.43042 198.176 4.53084 198.703 4.73169C199.239 4.92341 199.723 5.19729 200.155 5.55334C200.587 5.90026 200.921 6.30195 201.156 6.75842L200.409 7.21033C200.211 6.81777 199.934 6.47541 199.577 6.18327C199.229 5.882 198.839 5.6492 198.407 5.48487C197.974 5.31141 197.532 5.22468 197.081 5.22468C196.339 5.22468 195.676 5.4027 195.093 5.75875C194.52 6.1148 194.069 6.60779 193.74 7.23772C193.411 7.85852 193.246 8.57518 193.246 9.3877C193.246 10.2093 193.411 10.9351 193.74 11.5651C194.069 12.195 194.525 12.688 195.107 13.044C195.7 13.4001 196.372 13.5781 197.124 13.5781C197.584 13.5781 198.031 13.4868 198.463 13.3042C198.895 13.1125 199.286 12.8523 199.633 12.5237C199.991 12.195 200.268 11.8207 200.465 11.4007L201.213 11.8526C200.968 12.3365 200.63 12.7702 200.197 13.1536C199.774 13.5279 199.295 13.82 198.759 14.03C198.223 14.24 197.678 14.345 197.124 14.345ZM205.876 14.345C205.199 14.345 204.598 14.1943 204.071 13.8931C203.554 13.5827 203.145 13.1582 202.845 12.6195C202.553 12.0809 202.408 11.4601 202.408 10.7571C202.408 10.0541 202.553 9.43335 202.845 8.89471C203.136 8.35607 203.535 7.93612 204.043 7.63485C204.56 7.32445 205.148 7.16925 205.806 7.16925C206.473 7.16925 207.037 7.32901 207.498 7.64854C207.968 7.95894 208.325 8.39259 208.569 8.94949C208.814 9.49725 208.936 10.1317 208.936 10.853H202.915L203.239 10.5928C203.239 11.2227 203.347 11.7614 203.564 12.2087C203.78 12.656 204.085 12.9984 204.48 13.2358C204.884 13.4731 205.35 13.5918 205.876 13.5918C206.421 13.5918 206.882 13.464 207.258 13.2084C207.643 12.9436 207.944 12.6058 208.16 12.195L208.865 12.6195C208.687 12.9573 208.452 13.2586 208.16 13.5233C207.878 13.779 207.545 13.9798 207.159 14.1259C206.774 14.2719 206.346 14.345 205.876 14.345ZM203.31 10.3463L202.957 10.0998H208.386L208.033 10.36C208.033 9.87612 207.939 9.45161 207.751 9.08643C207.573 8.72125 207.319 8.43824 206.99 8.23739C206.661 8.02742 206.266 7.92243 205.806 7.92243C205.354 7.92243 204.936 8.02742 204.551 8.23739C204.175 8.43824 203.874 8.72125 203.648 9.08643C203.423 9.44248 203.31 9.86243 203.31 10.3463ZM210.486 14.1807V7.33358H211.276L211.332 8.59344V14.1807H210.486ZM220.846 14.345C220.197 14.345 219.689 14.1807 219.323 13.852C218.956 13.5142 218.773 13.0395 218.773 12.4278V5.19729H219.619V12.4278C219.619 12.793 219.727 13.0806 219.943 13.2905C220.159 13.4914 220.46 13.5918 220.846 13.5918C220.958 13.5918 221.066 13.5781 221.17 13.5507C221.283 13.5142 221.442 13.4275 221.649 13.2905L222.002 14.0026C221.748 14.1487 221.536 14.24 221.367 14.2765C221.198 14.3222 221.024 14.345 220.846 14.345ZM217.518 8.08676V7.33358H221.861V8.08676H217.518ZM226.53 14.345C225.853 14.345 225.252 14.1943 224.725 13.8931C224.208 13.5827 223.799 13.1582 223.499 12.6195C223.207 12.0809 223.062 11.4601 223.062 10.7571C223.062 10.0541 223.207 9.43335 223.499 8.89471C223.79 8.35607 224.19 7.93612 224.697 7.63485C225.214 7.32445 225.802 7.16925 226.46 7.16925C227.127 7.16925 227.691 7.32901 228.152 7.64854C228.622 7.95894 228.979 8.39259 229.223 8.94949C229.468 9.49725 229.59 10.1317 229.59 10.853H223.569L223.893 10.5928C223.893 11.2227 224.002 11.7614 224.218 12.2087C224.434 12.656 224.739 12.9984 225.134 13.2358C225.538 13.4731 226.004 13.5918 226.53 13.5918C227.075 13.5918 227.536 13.464 227.912 13.2084C228.297 12.9436 228.598 12.6058 228.814 12.195L229.519 12.6195C229.341 12.9573 229.106 13.2586 228.814 13.5233C228.532 13.779 228.199 13.9798 227.813 14.1259C227.428 14.2719 227 14.345 226.53 14.345ZM223.964 10.3463L223.611 10.0998H229.04L228.687 10.36C228.687 9.87612 228.593 9.45161 228.405 9.08643C228.227 8.72125 227.973 8.43824 227.644 8.23739C227.315 8.02742 226.92 7.92243 226.46 7.92243C226.008 7.92243 225.59 8.02742 225.205 8.23739C224.829 8.43824 224.528 8.72125 224.302 9.08643C224.077 9.44248 223.964 9.86243 223.964 10.3463ZM231.493 10.4285C231.493 9.68897 231.634 9.09099 231.916 8.63452C232.207 8.17805 232.578 7.84483 233.03 7.63485C233.49 7.41574 233.974 7.30619 234.482 7.30619V8.05937C234.068 8.05937 233.669 8.1324 233.283 8.27847C232.907 8.41542 232.597 8.65278 232.353 8.99057C232.108 9.31923 231.986 9.77114 231.986 10.3463L231.493 10.4285ZM231.14 14.1807V7.33358H231.986V14.1807H231.14ZM239.914 14.1807V6.51193C239.914 5.80896 240.079 5.28859 240.408 4.9508C240.737 4.60388 241.235 4.43042 241.902 4.43042C242.053 4.43042 242.231 4.45781 242.438 4.51258C242.645 4.56736 242.885 4.64953 243.157 4.75908L242.847 5.45748C242.603 5.36619 242.396 5.29772 242.227 5.25207C242.067 5.20642 241.935 5.1836 241.832 5.1836C241.475 5.1836 241.207 5.29315 241.028 5.51226C240.849 5.73136 240.76 6.06459 240.76 6.51193V14.1807H239.914ZM238.575 8.08676V7.33358H242.917V8.08676H238.575ZM247.336 14.345C246.659 14.345 246.057 14.1943 245.531 13.8931C245.014 13.5827 244.605 13.1582 244.304 12.6195C244.013 12.0809 243.867 11.4601 243.867 10.7571C243.867 10.0541 244.013 9.43335 244.304 8.89471C244.596 8.35607 245 7.93612 245.517 7.63485C246.043 7.32445 246.64 7.16925 247.307 7.16925C247.984 7.16925 248.581 7.32445 249.098 7.63485C249.624 7.93612 250.033 8.35607 250.325 8.89471C250.616 9.43335 250.762 10.0541 250.762 10.7571C250.762 11.4601 250.616 12.0809 250.325 12.6195C250.033 13.1582 249.629 13.5827 249.112 13.8931C248.595 14.1943 248.003 14.345 247.336 14.345ZM247.336 13.5918C247.843 13.5918 248.29 13.4731 248.675 13.2358C249.06 12.9893 249.361 12.656 249.577 12.2361C249.803 11.807 249.916 11.314 249.916 10.7571C249.916 10.2002 249.803 9.71179 249.577 9.29184C249.361 8.86276 249.056 8.52953 248.661 8.29217C248.266 8.04567 247.815 7.92243 247.307 7.92243C246.8 7.92243 246.349 8.04567 245.954 8.29217C245.568 8.52953 245.263 8.86276 245.037 9.29184C244.821 9.71179 244.713 10.2002 244.713 10.7571C244.713 11.314 244.826 11.807 245.051 12.2361C245.277 12.656 245.587 12.9893 245.982 13.2358C246.377 13.4731 246.828 13.5918 247.336 13.5918ZM252.808 10.4285C252.808 9.68897 252.949 9.09099 253.231 8.63452C253.522 8.17805 253.893 7.84483 254.345 7.63485C254.805 7.41574 255.289 7.30619 255.797 7.30619V8.05937C255.383 8.05937 254.984 8.1324 254.598 8.27847C254.222 8.41542 253.912 8.65278 253.668 8.99057C253.423 9.31923 253.301 9.77114 253.301 10.3463L252.808 10.4285ZM252.455 14.1807V7.33358H253.301V14.1807H252.455Z" stroke="white" stroke-width="0.5"/>
<path d="M192.344 30.5315V20.4663H195.374C195.994 20.4663 196.544 20.5957 197.023 20.8545C197.503 21.1037 197.874 21.4536 198.137 21.9042C198.409 22.3451 198.546 22.858 198.546 23.4427C198.546 24.0179 198.395 24.5307 198.095 24.9812C197.803 25.4318 197.404 25.7865 196.896 26.0453C196.389 26.2945 195.821 26.4191 195.191 26.4191H193.246V30.5315H192.344ZM197.954 30.5315L195.557 26.3616L196.304 25.9159L198.94 30.5315H197.954ZM193.246 25.5708H195.614C195.99 25.5708 196.328 25.4797 196.629 25.2976C196.939 25.1154 197.188 24.8662 197.376 24.5499C197.564 24.224 197.658 23.8549 197.658 23.4427C197.658 22.81 197.441 22.2972 197.009 21.9042C196.586 21.5016 196.041 21.3003 195.374 21.3003H193.246V25.5708Z" fill="white"/>
<path d="M203.749 30.704C203.072 30.704 202.471 30.5459 201.945 30.2295C201.428 29.9036 201.019 29.4579 200.719 28.8923C200.427 28.3267 200.282 27.6749 200.282 26.9368C200.282 26.1986 200.427 25.5468 200.719 24.9812C201.01 24.4157 201.409 23.9747 201.917 23.6584C202.433 23.3325 203.021 23.1695 203.678 23.1695C204.346 23.1695 204.909 23.3373 205.37 23.6728C205.84 23.9987 206.197 24.454 206.441 25.0388C206.685 25.6139 206.808 26.2801 206.808 27.0374H200.789L201.113 26.7642C201.113 27.4256 201.221 27.9912 201.437 28.4609C201.653 28.9306 201.959 29.2901 202.354 29.5393C202.758 29.7886 203.223 29.9132 203.749 29.9132C204.294 29.9132 204.754 29.779 205.13 29.5106C205.516 29.2326 205.816 28.8779 206.032 28.4465L206.737 28.8923C206.559 29.247 206.324 29.5633 206.032 29.8413C205.75 30.1097 205.417 30.3206 205.032 30.474C204.646 30.6273 204.219 30.704 203.749 30.704ZM201.184 26.5054L200.831 26.2466H206.258L205.906 26.5198C205.906 26.0117 205.812 25.566 205.624 25.1825C205.445 24.7991 205.191 24.5019 204.862 24.2911C204.534 24.0706 204.139 23.9603 203.678 23.9603C203.227 23.9603 202.809 24.0706 202.424 24.2911C202.048 24.5019 201.747 24.7991 201.522 25.1825C201.296 25.5564 201.184 25.9973 201.184 26.5054Z" fill="white"/>
<path d="M210.754 30.704C210.218 30.704 209.758 30.6225 209.372 30.4596C208.987 30.2966 208.672 30.0857 208.428 29.8269C208.193 29.5681 208.029 29.2997 207.935 29.0217L208.696 28.7341C208.856 29.0888 209.109 29.3764 209.457 29.5968C209.814 29.8077 210.195 29.9132 210.599 29.9132C211.097 29.9132 211.52 29.8077 211.867 29.5968C212.215 29.386 212.389 29.0888 212.389 28.7054C212.389 28.3603 212.262 28.0775 212.008 27.857C211.755 27.6365 211.379 27.4592 210.881 27.325L210.19 27.1381C209.56 26.9655 209.072 26.7163 208.724 26.3904C208.386 26.0549 208.217 25.681 208.217 25.2688C208.217 24.6074 208.428 24.0945 208.851 23.7303C209.283 23.3564 209.932 23.1695 210.796 23.1695C211.2 23.1695 211.562 23.2318 211.881 23.3564C212.21 23.4715 212.487 23.6392 212.713 23.8597C212.948 24.0802 213.122 24.3438 213.235 24.6505L212.473 24.9812C212.323 24.6074 212.102 24.3438 211.811 24.1904C211.52 24.037 211.139 23.9603 210.669 23.9603C210.171 23.9603 209.777 24.0706 209.485 24.2911C209.203 24.5019 209.062 24.8039 209.062 25.1969C209.062 25.4078 209.175 25.6187 209.401 25.8296C209.636 26.0309 209.983 26.1939 210.444 26.3185L211.05 26.4766C211.51 26.5917 211.9 26.7594 212.22 26.9799C212.549 27.1908 212.798 27.4352 212.967 27.7132C213.145 27.9912 213.235 28.298 213.235 28.6335C213.235 29.0648 213.126 29.4387 212.91 29.755C212.694 30.0618 212.398 30.2966 212.022 30.4596C211.656 30.6225 211.233 30.704 210.754 30.704Z" fill="white"/>
<path d="M217.968 30.704C217.291 30.704 216.69 30.5459 216.164 30.2295C215.647 29.9036 215.238 29.4579 214.937 28.8923C214.646 28.3267 214.501 27.6749 214.501 26.9368C214.501 26.1986 214.646 25.5468 214.937 24.9812C215.229 24.4157 215.628 23.9747 216.136 23.6584C216.652 23.3325 217.24 23.1695 217.897 23.1695C218.565 23.1695 219.128 23.3373 219.589 23.6728C220.059 23.9987 220.416 24.454 220.66 25.0388C220.904 25.6139 221.027 26.2801 221.027 27.0374H215.008L215.332 26.7642C215.332 27.4256 215.44 27.9912 215.656 28.4609C215.872 28.9306 216.178 29.2901 216.572 29.5393C216.977 29.7886 217.442 29.9132 217.968 29.9132C218.513 29.9132 218.973 29.779 219.349 29.5106C219.734 29.2326 220.035 28.8779 220.251 28.4465L220.956 28.8923C220.778 29.247 220.543 29.5633 220.251 29.8413C219.969 30.1097 219.636 30.3206 219.251 30.474C218.865 30.6273 218.438 30.704 217.968 30.704ZM215.403 26.5054L215.05 26.2466H220.477L220.124 26.5198C220.124 26.0117 220.03 25.566 219.843 25.1825C219.664 24.7991 219.41 24.5019 219.081 24.2911C218.753 24.0706 218.358 23.9603 217.897 23.9603C217.446 23.9603 217.028 24.0706 216.643 24.2911C216.267 24.5019 215.966 24.7991 215.741 25.1825C215.515 25.5564 215.403 25.9973 215.403 26.5054Z" fill="white"/>
<path d="M226.96 30.5315L226.89 29.4531V26.6779C226.89 26.0644 226.819 25.5612 226.678 25.1682C226.547 24.7656 226.335 24.4636 226.044 24.2623C225.762 24.061 225.391 23.9603 224.93 23.9603C224.508 23.9603 224.151 24.0466 223.859 24.2192C223.577 24.3917 223.342 24.6601 223.154 25.0244L222.393 24.6793C222.591 24.3342 222.811 24.0514 223.056 23.8309C223.309 23.6105 223.591 23.4475 223.901 23.342C224.212 23.227 224.555 23.1695 224.93 23.1695C225.56 23.1695 226.082 23.2989 226.495 23.5577C226.908 23.8165 227.219 24.2048 227.425 24.7224C227.632 25.2401 227.735 25.8919 227.735 26.6779V30.5315H226.96ZM224.789 30.704C223.963 30.704 223.314 30.5123 222.844 30.1289C222.384 29.7358 222.154 29.1942 222.154 28.5041C222.154 27.7947 222.384 27.2435 222.844 26.8505C223.314 26.4575 223.963 26.261 224.789 26.261H226.904V27.0518H224.902C224.226 27.0518 223.737 27.1812 223.436 27.44C223.145 27.6893 222.999 28.0439 222.999 28.5041C222.999 28.945 223.15 29.2901 223.45 29.5393C223.761 29.7886 224.188 29.9132 224.733 29.9132C225.184 29.9132 225.569 29.8221 225.889 29.64C226.218 29.4483 226.467 29.1703 226.636 28.806C226.805 28.4417 226.89 27.9912 226.89 27.4544H227.383C227.383 28.4322 227.153 29.2182 226.692 29.8125C226.241 30.4069 225.607 30.704 224.789 30.704Z" fill="white"/>
<path d="M229.99 26.5917C229.99 25.8152 230.131 25.1873 230.413 24.708C230.704 24.2287 231.076 23.8789 231.527 23.6584C231.987 23.4283 232.471 23.3133 232.978 23.3133V24.1041C232.565 24.1041 232.166 24.1808 231.78 24.3342C231.404 24.478 231.094 24.7272 230.85 25.0819C230.606 25.427 230.484 25.9015 230.484 26.5054L229.99 26.5917ZM229.638 30.5315V23.342H230.484V30.5315H229.638Z" fill="white"/>
<path d="M237.225 30.704C236.548 30.704 235.947 30.5459 235.421 30.2295C234.904 29.9036 234.495 29.4579 234.194 28.8923C233.903 28.3267 233.757 27.6749 233.757 26.9368C233.757 26.1986 233.903 25.5468 234.194 24.9812C234.486 24.4157 234.89 23.9747 235.406 23.6584C235.933 23.3325 236.529 23.1695 237.197 23.1695C237.864 23.1695 238.456 23.3229 238.973 23.6296C239.489 23.9268 239.889 24.3438 240.171 24.8806L239.438 25.2832C239.222 24.871 238.916 24.5499 238.521 24.3198C238.136 24.0802 237.695 23.9603 237.197 23.9603C236.689 23.9603 236.238 24.0897 235.843 24.3486C235.458 24.5978 235.153 24.9477 234.927 25.3982C234.711 25.8392 234.603 26.352 234.603 26.9368C234.603 27.5215 234.716 28.0391 234.941 28.4897C235.167 28.9306 235.477 29.2805 235.872 29.5393C236.266 29.7886 236.717 29.9132 237.225 29.9132C237.732 29.9132 238.183 29.7838 238.578 29.525C238.973 29.2565 239.273 28.8875 239.48 28.4178L240.227 28.8204C239.945 29.4051 239.541 29.8653 239.015 30.2008C238.498 30.5363 237.901 30.704 237.225 30.704Z" fill="white"/>
<path d="M241.778 30.5315V20.4663H242.624V30.5315H241.778ZM246.838 30.5315V26.8505H247.684V30.5315H246.838ZM246.838 26.8505C246.838 26.0549 246.744 25.4509 246.557 25.0388C246.378 24.6266 246.129 24.3486 245.81 24.2048C245.499 24.0514 245.147 23.9747 244.752 23.9747C244.085 23.9747 243.564 24.2287 243.188 24.7368C242.812 25.2353 242.624 25.935 242.624 26.8361H242.103C242.103 26.0692 242.211 25.4126 242.427 24.8662C242.643 24.3198 242.958 23.9028 243.371 23.6152C243.794 23.3181 244.306 23.1695 244.907 23.1695C245.452 23.1695 245.932 23.2845 246.345 23.5146C246.768 23.7351 247.097 24.0897 247.332 24.5786C247.576 25.0675 247.694 25.7146 247.684 26.5198V26.8505H246.838Z" fill="white"/>
<path d="M256.151 30.704C255.475 30.704 254.873 30.5459 254.347 30.2295C253.83 29.9036 253.421 29.4579 253.121 28.8923C252.829 28.3267 252.684 27.6749 252.684 26.9368C252.684 26.1986 252.829 25.5468 253.121 24.9812C253.412 24.4157 253.816 23.9747 254.333 23.6584C254.859 23.3325 255.456 23.1695 256.123 23.1695C256.8 23.1695 257.396 23.3325 257.913 23.6584C258.439 23.9747 258.848 24.4157 259.139 24.9812C259.431 25.5468 259.576 26.1986 259.576 26.9368C259.576 27.6749 259.431 28.3267 259.139 28.8923C258.848 29.4579 258.444 29.9036 257.927 30.2295C257.41 30.5459 256.818 30.704 256.151 30.704ZM256.151 29.9132C256.659 29.9132 257.105 29.7886 257.49 29.5393C257.875 29.2805 258.176 28.9306 258.392 28.4897C258.618 28.0391 258.731 27.5215 258.731 26.9368C258.731 26.352 258.618 25.8392 258.392 25.3982C258.176 24.9477 257.871 24.5978 257.476 24.3486C257.081 24.0897 256.63 23.9603 256.123 23.9603C255.616 23.9603 255.165 24.0897 254.77 24.3486C254.385 24.5978 254.079 24.9477 253.854 25.3982C253.638 25.8392 253.53 26.352 253.53 26.9368C253.53 27.5215 253.642 28.0391 253.868 28.4897C254.093 28.9306 254.403 29.2805 254.798 29.5393C255.193 29.7886 255.644 29.9132 256.151 29.9132Z" fill="white"/>
<path d="M261.974 30.5315V22.4793C261.974 21.7412 262.138 21.1948 262.467 20.8401C262.796 20.4759 263.294 20.2937 263.961 20.2937C264.112 20.2937 264.29 20.3225 264.497 20.38C264.704 20.4375 264.943 20.5238 265.216 20.6388L264.906 21.3721C264.661 21.2763 264.455 21.2044 264.285 21.1565C264.126 21.1085 263.994 21.0846 263.891 21.0846C263.534 21.0846 263.266 21.1996 263.087 21.4297C262.909 21.6597 262.82 22.0096 262.82 22.4793V30.5315H261.974ZM260.635 24.1329V23.342H264.976V24.1329H260.635Z" fill="white"/>
<path d="M246.838 26.8505V30.5315H247.684V26.8505M246.838 26.8505H247.684M246.838 26.8505C246.838 26.0549 246.744 25.4509 246.557 25.0388C246.378 24.6266 246.129 24.3486 245.81 24.2048C245.499 24.0514 245.147 23.9747 244.752 23.9747C244.085 23.9747 243.564 24.2287 243.188 24.7368C242.812 25.2353 242.624 25.935 242.624 26.8361H242.103C242.103 26.0692 242.211 25.4126 242.427 24.8662C242.643 24.3198 242.958 23.9028 243.371 23.6152C243.794 23.3181 244.306 23.1695 244.907 23.1695C245.452 23.1695 245.932 23.2845 246.345 23.5146C246.768 23.7351 247.097 24.0897 247.332 24.5786C247.576 25.0675 247.694 25.7146 247.684 26.5198V26.8505M192.344 30.5315V20.4663H195.374C195.994 20.4663 196.544 20.5957 197.023 20.8545C197.503 21.1037 197.874 21.4536 198.137 21.9042C198.409 22.3451 198.546 22.858 198.546 23.4427C198.546 24.0179 198.395 24.5307 198.095 24.9812C197.803 25.4318 197.404 25.7865 196.896 26.0453C196.389 26.2945 195.821 26.4191 195.191 26.4191H193.246V30.5315H192.344ZM197.954 30.5315L195.557 26.3616L196.304 25.9159L198.94 30.5315H197.954ZM193.246 25.5708H195.614C195.99 25.5708 196.328 25.4797 196.629 25.2976C196.939 25.1154 197.188 24.8662 197.376 24.5499C197.564 24.224 197.658 23.8549 197.658 23.4427C197.658 22.81 197.441 22.2972 197.009 21.9042C196.586 21.5016 196.041 21.3003 195.374 21.3003H193.246V25.5708ZM203.749 30.704C203.072 30.704 202.471 30.5459 201.945 30.2295C201.428 29.9036 201.019 29.4579 200.719 28.8923C200.427 28.3267 200.282 27.6749 200.282 26.9368C200.282 26.1986 200.427 25.5468 200.719 24.9812C201.01 24.4157 201.409 23.9747 201.917 23.6584C202.433 23.3325 203.021 23.1695 203.678 23.1695C204.346 23.1695 204.909 23.3373 205.37 23.6728C205.84 23.9987 206.197 24.454 206.441 25.0388C206.685 25.6139 206.808 26.2801 206.808 27.0374H200.789L201.113 26.7642C201.113 27.4256 201.221 27.9912 201.437 28.4609C201.653 28.9306 201.959 29.2901 202.354 29.5393C202.758 29.7886 203.223 29.9132 203.749 29.9132C204.294 29.9132 204.754 29.779 205.13 29.5106C205.516 29.2326 205.816 28.8779 206.032 28.4465L206.737 28.8923C206.559 29.247 206.324 29.5633 206.032 29.8413C205.75 30.1097 205.417 30.3206 205.032 30.474C204.646 30.6273 204.219 30.704 203.749 30.704ZM201.184 26.5054L200.831 26.2466H206.258L205.906 26.5198C205.906 26.0117 205.812 25.566 205.624 25.1825C205.445 24.7991 205.191 24.5019 204.862 24.2911C204.534 24.0706 204.139 23.9603 203.678 23.9603C203.227 23.9603 202.809 24.0706 202.424 24.2911C202.048 24.5019 201.747 24.7991 201.522 25.1825C201.296 25.5564 201.184 25.9973 201.184 26.5054ZM210.754 30.704C210.218 30.704 209.758 30.6225 209.372 30.4596C208.987 30.2966 208.672 30.0857 208.428 29.8269C208.193 29.5681 208.029 29.2997 207.935 29.0217L208.696 28.7341C208.856 29.0888 209.109 29.3764 209.457 29.5968C209.814 29.8077 210.195 29.9132 210.599 29.9132C211.097 29.9132 211.52 29.8077 211.867 29.5968C212.215 29.386 212.389 29.0888 212.389 28.7054C212.389 28.3603 212.262 28.0775 212.008 27.857C211.755 27.6365 211.379 27.4592 210.881 27.325L210.19 27.1381C209.56 26.9655 209.072 26.7163 208.724 26.3904C208.386 26.0549 208.217 25.681 208.217 25.2688C208.217 24.6074 208.428 24.0945 208.851 23.7303C209.283 23.3564 209.932 23.1695 210.796 23.1695C211.2 23.1695 211.562 23.2318 211.881 23.3564C212.21 23.4715 212.487 23.6392 212.713 23.8597C212.948 24.0802 213.122 24.3438 213.235 24.6505L212.473 24.9812C212.323 24.6074 212.102 24.3438 211.811 24.1904C211.52 24.037 211.139 23.9603 210.669 23.9603C210.171 23.9603 209.777 24.0706 209.485 24.2911C209.203 24.5019 209.062 24.8039 209.062 25.1969C209.062 25.4078 209.175 25.6187 209.401 25.8296C209.636 26.0309 209.983 26.1939 210.444 26.3185L211.05 26.4766C211.51 26.5917 211.9 26.7594 212.22 26.9799C212.549 27.1908 212.798 27.4352 212.967 27.7132C213.145 27.9912 213.235 28.298 213.235 28.6335C213.235 29.0648 213.126 29.4387 212.91 29.755C212.694 30.0618 212.398 30.2966 212.022 30.4596C211.656 30.6225 211.233 30.704 210.754 30.704ZM217.968 30.704C217.291 30.704 216.69 30.5459 216.164 30.2295C215.647 29.9036 215.238 29.4579 214.937 28.8923C214.646 28.3267 214.501 27.6749 214.501 26.9368C214.501 26.1986 214.646 25.5468 214.937 24.9812C215.229 24.4157 215.628 23.9747 216.136 23.6584C216.652 23.3325 217.24 23.1695 217.897 23.1695C218.565 23.1695 219.128 23.3373 219.589 23.6728C220.059 23.9987 220.416 24.454 220.66 25.0388C220.904 25.6139 221.027 26.2801 221.027 27.0374H215.008L215.332 26.7642C215.332 27.4256 215.44 27.9912 215.656 28.4609C215.872 28.9306 216.178 29.2901 216.572 29.5393C216.977 29.7886 217.442 29.9132 217.968 29.9132C218.513 29.9132 218.973 29.779 219.349 29.5106C219.734 29.2326 220.035 28.8779 220.251 28.4465L220.956 28.8923C220.778 29.247 220.543 29.5633 220.251 29.8413C219.969 30.1097 219.636 30.3206 219.251 30.474C218.865 30.6273 218.438 30.704 217.968 30.704ZM215.403 26.5054L215.05 26.2466H220.477L220.124 26.5198C220.124 26.0117 220.03 25.566 219.843 25.1825C219.664 24.7991 219.41 24.5019 219.081 24.2911C218.753 24.0706 218.358 23.9603 217.897 23.9603C217.446 23.9603 217.028 24.0706 216.643 24.2911C216.267 24.5019 215.966 24.7991 215.741 25.1825C215.515 25.5564 215.403 25.9973 215.403 26.5054ZM226.96 30.5315L226.89 29.4531V26.6779C226.89 26.0644 226.819 25.5612 226.678 25.1682C226.547 24.7656 226.335 24.4636 226.044 24.2623C225.762 24.061 225.391 23.9603 224.93 23.9603C224.508 23.9603 224.151 24.0466 223.859 24.2192C223.577 24.3917 223.342 24.6601 223.154 25.0244L222.393 24.6793C222.591 24.3342 222.811 24.0514 223.056 23.8309C223.309 23.6105 223.591 23.4475 223.901 23.342C224.212 23.227 224.555 23.1695 224.93 23.1695C225.56 23.1695 226.082 23.2989 226.495 23.5577C226.908 23.8165 227.219 24.2048 227.425 24.7224C227.632 25.2401 227.735 25.8919 227.735 26.6779V30.5315H226.96ZM224.789 30.704C223.963 30.704 223.314 30.5123 222.844 30.1289C222.384 29.7358 222.154 29.1942 222.154 28.5041C222.154 27.7947 222.384 27.2435 222.844 26.8505C223.314 26.4575 223.963 26.261 224.789 26.261H226.904V27.0518H224.902C224.226 27.0518 223.737 27.1812 223.436 27.44C223.145 27.6893 222.999 28.0439 222.999 28.5041C222.999 28.945 223.15 29.2901 223.45 29.5393C223.761 29.7886 224.188 29.9132 224.733 29.9132C225.184 29.9132 225.569 29.8221 225.889 29.64C226.218 29.4483 226.467 29.1703 226.636 28.806C226.805 28.4417 226.89 27.9912 226.89 27.4544H227.383C227.383 28.4322 227.153 29.2182 226.692 29.8125C226.241 30.4069 225.607 30.704 224.789 30.704ZM229.99 26.5917C229.99 25.8152 230.131 25.1873 230.413 24.708C230.704 24.2287 231.076 23.8789 231.527 23.6584C231.987 23.4283 232.471 23.3133 232.978 23.3133V24.1041C232.565 24.1041 232.166 24.1808 231.78 24.3342C231.404 24.478 231.094 24.7272 230.85 25.0819C230.606 25.427 230.484 25.9015 230.484 26.5054L229.99 26.5917ZM229.638 30.5315V23.342H230.484V30.5315H229.638ZM237.225 30.704C236.548 30.704 235.947 30.5459 235.421 30.2295C234.904 29.9036 234.495 29.4579 234.194 28.8923C233.903 28.3267 233.757 27.6749 233.757 26.9368C233.757 26.1986 233.903 25.5468 234.194 24.9812C234.486 24.4157 234.89 23.9747 235.406 23.6584C235.933 23.3325 236.529 23.1695 237.197 23.1695C237.864 23.1695 238.456 23.3229 238.973 23.6296C239.489 23.9268 239.889 24.3438 240.171 24.8806L239.438 25.2832C239.222 24.871 238.916 24.5499 238.521 24.3198C238.136 24.0802 237.695 23.9603 237.197 23.9603C236.689 23.9603 236.238 24.0897 235.843 24.3486C235.458 24.5978 235.153 24.9477 234.927 25.3982C234.711 25.8392 234.603 26.352 234.603 26.9368C234.603 27.5215 234.716 28.0391 234.941 28.4897C235.167 28.9306 235.477 29.2805 235.872 29.5393C236.266 29.7886 236.717 29.9132 237.225 29.9132C237.732 29.9132 238.183 29.7838 238.578 29.525C238.973 29.2565 239.273 28.8875 239.48 28.4178L240.227 28.8204C239.945 29.4051 239.541 29.8653 239.015 30.2008C238.498 30.5363 237.901 30.704 237.225 30.704ZM241.778 30.5315V20.4663H242.624V30.5315H241.778ZM256.151 30.704C255.475 30.704 254.873 30.5459 254.347 30.2295C253.83 29.9036 253.421 29.4579 253.121 28.8923C252.829 28.3267 252.684 27.6749 252.684 26.9368C252.684 26.1986 252.829 25.5468 253.121 24.9812C253.412 24.4157 253.816 23.9747 254.333 23.6584C254.859 23.3325 255.456 23.1695 256.123 23.1695C256.8 23.1695 257.396 23.3325 257.913 23.6584C258.439 23.9747 258.848 24.4157 259.139 24.9812C259.431 25.5468 259.576 26.1986 259.576 26.9368C259.576 27.6749 259.431 28.3267 259.139 28.8923C258.848 29.4579 258.444 29.9036 257.927 30.2295C257.41 30.5459 256.818 30.704 256.151 30.704ZM256.151 29.9132C256.659 29.9132 257.105 29.7886 257.49 29.5393C257.875 29.2805 258.176 28.9306 258.392 28.4897C258.618 28.0391 258.731 27.5215 258.731 26.9368C258.731 26.352 258.618 25.8392 258.392 25.3982C258.176 24.9477 257.871 24.5978 257.476 24.3486C257.081 24.0897 256.63 23.9603 256.123 23.9603C255.616 23.9603 255.165 24.0897 254.77 24.3486C254.385 24.5978 254.079 24.9477 253.854 25.3982C253.638 25.8392 253.53 26.352 253.53 26.9368C253.53 27.5215 253.642 28.0391 253.868 28.4897C254.093 28.9306 254.403 29.2805 254.798 29.5393C255.193 29.7886 255.644 29.9132 256.151 29.9132ZM261.974 30.5315V22.4793C261.974 21.7412 262.138 21.1948 262.467 20.8401C262.796 20.4759 263.294 20.2937 263.961 20.2937C264.112 20.2937 264.29 20.3225 264.497 20.38C264.704 20.4375 264.943 20.5238 265.216 20.6388L264.906 21.3721C264.661 21.2763 264.455 21.2044 264.285 21.1565C264.126 21.1085 263.994 21.0846 263.891 21.0846C263.534 21.0846 263.266 21.1996 263.087 21.4297C262.909 21.6597 262.82 22.0096 262.82 22.4793V30.5315H261.974ZM260.635 24.1329V23.342H264.976V24.1329H260.635Z" stroke="white" stroke-width="0.5"/>
<path d="M194.566 48.561V39.5863H191.351V38.7755H198.683V39.5863H195.468V48.561H194.566Z" fill="white"/>
<path d="M202.088 48.7287C201.411 48.7287 200.809 48.575 200.283 48.2674C199.766 47.9506 199.357 47.5172 199.056 46.9674C198.765 46.4175 198.619 45.7838 198.619 45.0662C198.619 44.3486 198.765 43.7148 199.056 43.165C199.348 42.6151 199.747 42.1864 200.255 41.8789C200.772 41.562 201.359 41.4036 202.017 41.4036C202.685 41.4036 203.249 41.5667 203.71 41.8929C204.18 42.2097 204.537 42.6524 204.781 43.2209C205.026 43.7801 205.148 44.4278 205.148 45.164H199.127L199.451 44.8984C199.451 45.5415 199.559 46.0913 199.775 46.548C199.992 47.0046 200.297 47.3541 200.692 47.5964C201.096 47.8387 201.562 47.9599 202.088 47.9599C202.633 47.9599 203.094 47.8294 203.47 47.5685C203.855 47.2982 204.156 46.9534 204.372 46.534L205.077 46.9674C204.899 47.3122 204.664 47.6197 204.372 47.89C204.09 48.1509 203.757 48.356 203.371 48.5051C202.986 48.6542 202.558 48.7287 202.088 48.7287ZM199.522 44.6468L199.169 44.3952H204.598L204.245 44.6608C204.245 44.1668 204.151 43.7335 203.963 43.3607C203.785 42.9879 203.531 42.699 203.202 42.494C202.873 42.2796 202.478 42.1724 202.017 42.1724C201.566 42.1724 201.148 42.2796 200.762 42.494C200.386 42.699 200.086 42.9879 199.86 43.3607C199.634 43.7242 199.522 44.1529 199.522 44.6468Z" fill="white"/>
<path d="M207.051 44.7307C207.051 43.9758 207.192 43.3654 207.474 42.8994C207.765 42.4334 208.137 42.0932 208.588 41.8789C209.049 41.6552 209.533 41.5434 210.04 41.5434V42.3122C209.627 42.3122 209.227 42.3868 208.842 42.5359C208.466 42.6757 208.156 42.918 207.911 43.2628C207.667 43.5983 207.545 44.0597 207.545 44.6468L207.051 44.7307ZM206.698 48.561V41.5713H207.545V48.561H206.698Z" fill="white"/>
<path d="M211.595 44.7307C211.595 43.9758 211.736 43.3654 212.018 42.8994C212.31 42.4334 212.681 42.0932 213.132 41.8789C213.593 41.6552 214.077 41.5434 214.585 41.5434V42.3122C214.171 42.3122 213.771 42.3868 213.386 42.5359C213.01 42.6757 212.7 42.918 212.455 43.2628C212.211 43.5983 212.089 44.0597 212.089 44.6468L211.595 44.7307ZM211.243 48.561V41.5713H212.089V48.561H211.243Z" fill="white"/>
<path d="M218.833 48.7287C218.156 48.7287 217.554 48.575 217.028 48.2674C216.511 47.9506 216.102 47.5172 215.801 46.9674C215.51 46.4175 215.364 45.7838 215.364 45.0662C215.364 44.3486 215.51 43.7148 215.801 43.165C216.092 42.6151 216.497 42.1864 217.014 41.8789C217.54 41.562 218.137 41.4036 218.804 41.4036C219.481 41.4036 220.078 41.562 220.595 41.8789C221.122 42.1864 221.531 42.6151 221.822 43.165C222.113 43.7148 222.259 44.3486 222.259 45.0662C222.259 45.7838 222.113 46.4175 221.822 46.9674C221.531 47.5172 221.126 47.9506 220.609 48.2674C220.092 48.575 219.5 48.7287 218.833 48.7287ZM218.833 47.9599C219.34 47.9599 219.787 47.8387 220.172 47.5964C220.558 47.3448 220.859 47.0046 221.075 46.5759C221.3 46.1379 221.413 45.6347 221.413 45.0662C221.413 44.4977 221.3 43.9991 221.075 43.5704C220.859 43.1324 220.553 42.7922 220.158 42.5499C219.763 42.2983 219.312 42.1724 218.804 42.1724C218.297 42.1724 217.846 42.2983 217.451 42.5499C217.065 42.7922 216.76 43.1324 216.534 43.5704C216.318 43.9991 216.21 44.4977 216.21 45.0662C216.21 45.6347 216.323 46.1379 216.548 46.5759C216.774 47.0046 217.084 47.3448 217.479 47.5964C217.874 47.8387 218.325 47.9599 218.833 47.9599Z" fill="white"/>
<path d="M224.305 44.7307C224.305 43.9758 224.446 43.3654 224.728 42.8994C225.02 42.4334 225.391 42.0932 225.842 41.8789C226.303 41.6552 226.787 41.5434 227.295 41.5434V42.3122C226.881 42.3122 226.481 42.3868 226.096 42.5359C225.72 42.6757 225.41 42.918 225.165 43.2628C224.921 43.5983 224.799 44.0597 224.799 44.6468L224.305 44.7307ZM223.953 48.561V41.5713H224.799V48.561H223.953Z" fill="white"/>
<path d="M232.375 48.561V38.7755H238.057V39.5863H233.277V43.3188H237.578V44.1296H233.277V48.561H232.375Z" fill="white"/>
<path d="M239.68 48.561V41.5713H240.526V48.561H239.68ZM240.117 39.754C239.967 39.754 239.835 39.6981 239.722 39.5863C239.609 39.4744 239.553 39.344 239.553 39.1949C239.553 39.0364 239.609 38.9059 239.722 38.8034C239.835 38.6916 239.967 38.6357 240.117 38.6357C240.277 38.6357 240.408 38.6916 240.512 38.8034C240.625 38.9059 240.681 39.0364 240.681 39.1949C240.681 39.344 240.625 39.4744 240.512 39.5863C240.408 39.6981 240.277 39.754 240.117 39.754Z" fill="white"/>
<path d="M242.722 48.561V41.5713H243.511L243.568 42.8574V48.561H242.722ZM247.784 48.561V44.9823H248.63V48.561H247.784ZM247.784 44.9823C247.784 44.2088 247.69 43.6216 247.502 43.2209C247.323 42.8202 247.074 42.5499 246.755 42.4101C246.444 42.261 246.092 42.1864 245.697 42.1864C245.03 42.1864 244.508 42.4334 244.132 42.9273C243.756 43.4119 243.568 44.0923 243.568 44.9683H243.046C243.046 44.2227 243.154 43.5844 243.37 43.0531C243.587 42.5219 243.902 42.1165 244.315 41.8369C244.738 41.548 245.25 41.4036 245.852 41.4036C246.397 41.4036 246.877 41.5154 247.29 41.7391C247.713 41.9534 248.042 42.2983 248.277 42.7736C248.522 43.2489 248.639 43.8779 248.63 44.6608V44.9823H247.784Z" fill="white"/>
<path d="M254.915 48.561L254.844 47.5125V44.8145C254.844 44.2181 254.774 43.7288 254.633 43.3467C254.501 42.9553 254.29 42.6617 253.998 42.466C253.716 42.2703 253.345 42.1724 252.884 42.1724C252.461 42.1724 252.104 42.2563 251.813 42.4241C251.531 42.5918 251.296 42.8528 251.108 43.2069L250.346 42.8714C250.544 42.5359 250.765 42.261 251.009 42.0466C251.263 41.8323 251.545 41.6739 251.855 41.5713C252.165 41.4595 252.508 41.4036 252.884 41.4036C253.514 41.4036 254.036 41.5294 254.45 41.781C254.863 42.0327 255.173 42.4101 255.38 42.9134C255.587 43.4166 255.69 44.0503 255.69 44.8145V48.561H254.915ZM252.743 48.7287C251.916 48.7287 251.267 48.5424 250.797 48.1696C250.337 47.7875 250.107 47.2609 250.107 46.5899C250.107 45.9003 250.337 45.3644 250.797 44.9823C251.267 44.6002 251.916 44.4091 252.743 44.4091H254.858V45.178H252.856C252.179 45.178 251.691 45.3038 251.39 45.5554C251.098 45.7977 250.953 46.1426 250.953 46.5899C250.953 47.0186 251.103 47.3541 251.404 47.5964C251.714 47.8387 252.142 47.9599 252.687 47.9599C253.138 47.9599 253.524 47.8713 253.843 47.6943C254.172 47.5079 254.421 47.2376 254.591 46.8835C254.76 46.5293 254.844 46.0913 254.844 45.5694H255.338C255.338 46.52 255.108 47.2842 254.647 47.862C254.196 48.4398 253.561 48.7287 252.743 48.7287Z" fill="white"/>
<path d="M257.594 48.561V41.5713H258.383L258.44 42.8574V48.561H257.594ZM262.656 48.561V44.9823H263.502V48.561H262.656ZM262.656 44.9823C262.656 44.2088 262.562 43.6216 262.374 43.2209C262.195 42.8202 261.946 42.5499 261.627 42.4101C261.316 42.261 260.964 42.1864 260.569 42.1864C259.902 42.1864 259.38 42.4334 259.004 42.9273C258.628 43.4119 258.44 44.0923 258.44 44.9683H257.918C257.918 44.2227 258.026 43.5844 258.242 43.0531C258.459 42.5219 258.773 42.1165 259.187 41.8369C259.61 41.548 260.122 41.4036 260.724 41.4036C261.269 41.4036 261.749 41.5154 262.162 41.7391C262.585 41.9534 262.914 42.2983 263.149 42.7736C263.394 43.2489 263.511 43.8779 263.502 44.6608V44.9823H262.656Z" fill="white"/>
<path d="M268.447 48.7287C267.77 48.7287 267.169 48.575 266.642 48.2674C266.125 47.9506 265.716 47.5172 265.416 46.9674C265.124 46.4175 264.979 45.7838 264.979 45.0662C264.979 44.3486 265.124 43.7148 265.416 43.165C265.707 42.6151 266.111 42.1864 266.628 41.8789C267.155 41.562 267.752 41.4036 268.419 41.4036C269.087 41.4036 269.679 41.5527 270.196 41.8509C270.713 42.1398 271.112 42.5452 271.394 43.0671L270.661 43.4585C270.445 43.0578 270.139 42.7456 269.745 42.5219C269.359 42.2889 268.917 42.1724 268.419 42.1724C267.911 42.1724 267.46 42.2983 267.065 42.5499C266.68 42.7922 266.374 43.1324 266.149 43.5704C265.933 43.9991 265.825 44.4977 265.825 45.0662C265.825 45.6347 265.937 46.1379 266.163 46.5759C266.389 47.0046 266.699 47.3448 267.094 47.5964C267.488 47.8387 267.94 47.9599 268.447 47.9599C268.955 47.9599 269.406 47.8341 269.801 47.5824C270.196 47.3215 270.497 46.9627 270.703 46.506L271.451 46.8975C271.169 47.4659 270.765 47.9133 270.238 48.2395C269.721 48.5657 269.124 48.7287 268.447 48.7287Z" fill="white"/>
<path d="M273.059 48.561V41.5713H273.905V48.561H273.059ZM273.496 39.754C273.346 39.754 273.214 39.6981 273.101 39.5863C272.989 39.4744 272.932 39.344 272.932 39.1949C272.932 39.0364 272.989 38.9059 273.101 38.8034C273.214 38.6916 273.346 38.6357 273.496 38.6357C273.656 38.6357 273.788 38.6916 273.891 38.8034C274.004 38.9059 274.06 39.0364 274.06 39.1949C274.06 39.344 274.004 39.4744 273.891 39.5863C273.788 39.6981 273.656 39.754 273.496 39.754Z" fill="white"/>
<path d="M276.101 48.561V41.5713H276.891L276.947 42.8574V48.561H276.101ZM281.163 48.561V44.9823H282.009V48.561H281.163ZM281.163 44.9823C281.163 44.2088 281.069 43.6216 280.881 43.2209C280.703 42.8202 280.454 42.5499 280.134 42.4101C279.824 42.261 279.471 42.1864 279.076 42.1864C278.409 42.1864 277.887 42.4334 277.511 42.9273C277.135 43.4119 276.947 44.0923 276.947 44.9683H276.425C276.425 44.2227 276.534 43.5844 276.75 43.0531C276.966 42.5219 277.281 42.1165 277.694 41.8369C278.118 41.548 278.63 41.4036 279.231 41.4036C279.777 41.4036 280.256 41.5154 280.67 41.7391C281.093 41.9534 281.422 42.2983 281.657 42.7736C281.901 43.2489 282.019 43.8779 282.009 44.6608V44.9823H281.163Z" fill="white"/>
<path d="M286.602 51.5246C286.179 51.5246 285.789 51.478 285.432 51.3848C285.075 51.2916 284.774 51.1891 284.529 51.0773C284.285 50.9748 284.116 50.9002 284.022 50.8536L284.332 50.1546C284.445 50.2199 284.614 50.2991 284.84 50.3923C285.075 50.4948 285.342 50.5787 285.643 50.6439C285.954 50.7185 286.273 50.7557 286.602 50.7557C287.091 50.7557 287.528 50.6579 287.914 50.4622C288.299 50.2665 288.6 49.9589 288.816 49.5395C289.042 49.1202 289.154 48.5796 289.154 47.9179V41.5713H290V47.9179C290 48.7287 289.845 49.3998 289.535 49.931C289.234 50.4715 288.825 50.8722 288.308 51.1332C287.791 51.3941 287.223 51.5246 286.602 51.5246ZM286.673 48.561C286.052 48.561 285.502 48.4072 285.023 48.0997C284.543 47.7921 284.167 47.3681 283.895 46.8276C283.622 46.2777 283.486 45.6533 283.486 44.9543C283.486 44.2554 283.622 43.6403 283.895 43.1091C284.167 42.5778 284.543 42.1631 285.023 41.8649C285.502 41.5574 286.052 41.4036 286.673 41.4036C287.274 41.4036 287.801 41.5574 288.252 41.8649C288.713 42.1631 289.07 42.5778 289.324 43.1091C289.587 43.6403 289.718 44.2554 289.718 44.9543C289.718 45.6533 289.587 46.2777 289.324 46.8276C289.07 47.3681 288.713 47.7921 288.252 48.0997C287.801 48.4072 287.274 48.561 286.673 48.561ZM286.842 47.8201C287.293 47.8201 287.693 47.6989 288.04 47.4566C288.388 47.205 288.661 46.8648 288.858 46.4361C289.056 46.0074 289.154 45.5135 289.154 44.9543C289.154 44.4045 289.056 43.9199 288.858 43.5005C288.661 43.0718 288.388 42.7363 288.04 42.494C287.693 42.2517 287.288 42.1305 286.828 42.1305C286.339 42.1305 285.907 42.2517 285.53 42.494C285.154 42.7363 284.858 43.0718 284.642 43.5005C284.435 43.9199 284.332 44.4045 284.332 44.9543C284.332 45.5135 284.44 46.0074 284.656 46.4361C284.872 46.8648 285.169 47.205 285.545 47.4566C285.921 47.6989 286.353 47.8201 286.842 47.8201Z" fill="white"/>
<path d="M247.784 44.9823V48.561H248.63V44.9823M247.784 44.9823H248.63M247.784 44.9823C247.784 44.2088 247.69 43.6216 247.502 43.2209C247.323 42.8202 247.074 42.5499 246.755 42.4101C246.444 42.261 246.092 42.1864 245.697 42.1864C245.03 42.1864 244.508 42.4334 244.132 42.9273C243.756 43.4119 243.568 44.0923 243.568 44.9683H243.046C243.046 44.2227 243.154 43.5844 243.37 43.0531C243.587 42.5219 243.902 42.1165 244.315 41.8369C244.738 41.548 245.25 41.4036 245.852 41.4036C246.397 41.4036 246.877 41.5154 247.29 41.7391C247.713 41.9534 248.042 42.2983 248.277 42.7736C248.522 43.2489 248.639 43.8779 248.63 44.6608V44.9823M262.656 44.9823V48.561H263.502V44.9823M262.656 44.9823H263.502M262.656 44.9823C262.656 44.2088 262.562 43.6216 262.374 43.2209C262.195 42.8202 261.946 42.5499 261.627 42.4101C261.316 42.261 260.964 42.1864 260.569 42.1864C259.902 42.1864 259.38 42.4334 259.004 42.9273C258.628 43.4119 258.44 44.0923 258.44 44.9683H257.918C257.918 44.2227 258.026 43.5844 258.242 43.0531C258.459 42.5219 258.773 42.1165 259.187 41.8369C259.61 41.548 260.122 41.4036 260.724 41.4036C261.269 41.4036 261.749 41.5154 262.162 41.7391C262.585 41.9534 262.914 42.2983 263.149 42.7736C263.394 43.2489 263.511 43.8779 263.502 44.6608V44.9823M281.163 44.9823V48.561H282.009V44.9823M281.163 44.9823H282.009M281.163 44.9823C281.163 44.2088 281.069 43.6216 280.881 43.2209C280.703 42.8202 280.454 42.5499 280.134 42.4101C279.824 42.261 279.471 42.1864 279.076 42.1864C278.409 42.1864 277.887 42.4334 277.511 42.9273C277.135 43.4119 276.947 44.0923 276.947 44.9683H276.425C276.425 44.2227 276.534 43.5844 276.75 43.0531C276.966 42.5219 277.281 42.1165 277.694 41.8369C278.118 41.548 278.63 41.4036 279.231 41.4036C279.777 41.4036 280.256 41.5154 280.67 41.7391C281.093 41.9534 281.422 42.2983 281.657 42.7736C281.901 43.2489 282.019 43.8779 282.009 44.6608V44.9823M194.566 48.561V39.5863H191.351V38.7755H198.683V39.5863H195.468V48.561H194.566ZM202.088 48.7287C201.411 48.7287 200.809 48.575 200.283 48.2674C199.766 47.9506 199.357 47.5172 199.056 46.9674C198.765 46.4175 198.619 45.7838 198.619 45.0662C198.619 44.3486 198.765 43.7148 199.056 43.165C199.348 42.6151 199.747 42.1864 200.255 41.8789C200.772 41.562 201.359 41.4036 202.017 41.4036C202.685 41.4036 203.249 41.5667 203.71 41.8929C204.18 42.2097 204.537 42.6524 204.781 43.2209C205.026 43.7801 205.148 44.4278 205.148 45.164H199.127L199.451 44.8984C199.451 45.5415 199.559 46.0913 199.775 46.548C199.992 47.0046 200.297 47.3541 200.692 47.5964C201.096 47.8387 201.562 47.9599 202.088 47.9599C202.633 47.9599 203.094 47.8294 203.47 47.5685C203.855 47.2982 204.156 46.9534 204.372 46.534L205.077 46.9674C204.899 47.3122 204.664 47.6197 204.372 47.89C204.09 48.1509 203.757 48.356 203.371 48.5051C202.986 48.6542 202.558 48.7287 202.088 48.7287ZM199.522 44.6468L199.169 44.3952H204.598L204.245 44.6608C204.245 44.1668 204.151 43.7335 203.963 43.3607C203.785 42.9879 203.531 42.699 203.202 42.494C202.873 42.2796 202.478 42.1724 202.017 42.1724C201.566 42.1724 201.148 42.2796 200.762 42.494C200.386 42.699 200.086 42.9879 199.86 43.3607C199.634 43.7242 199.522 44.1529 199.522 44.6468ZM207.051 44.7307C207.051 43.9758 207.192 43.3654 207.474 42.8994C207.765 42.4334 208.137 42.0932 208.588 41.8789C209.049 41.6552 209.533 41.5434 210.04 41.5434V42.3122C209.627 42.3122 209.227 42.3868 208.842 42.5359C208.466 42.6757 208.156 42.918 207.911 43.2628C207.667 43.5983 207.545 44.0597 207.545 44.6468L207.051 44.7307ZM206.698 48.561V41.5713H207.545V48.561H206.698ZM211.595 44.7307C211.595 43.9758 211.736 43.3654 212.018 42.8994C212.31 42.4334 212.681 42.0932 213.132 41.8789C213.593 41.6552 214.077 41.5434 214.585 41.5434V42.3122C214.171 42.3122 213.771 42.3868 213.386 42.5359C213.01 42.6757 212.7 42.918 212.455 43.2628C212.211 43.5983 212.089 44.0597 212.089 44.6468L211.595 44.7307ZM211.243 48.561V41.5713H212.089V48.561H211.243ZM218.833 48.7287C218.156 48.7287 217.554 48.575 217.028 48.2674C216.511 47.9506 216.102 47.5172 215.801 46.9674C215.51 46.4175 215.364 45.7838 215.364 45.0662C215.364 44.3486 215.51 43.7148 215.801 43.165C216.092 42.6151 216.497 42.1864 217.014 41.8789C217.54 41.562 218.137 41.4036 218.804 41.4036C219.481 41.4036 220.078 41.562 220.595 41.8789C221.122 42.1864 221.531 42.6151 221.822 43.165C222.113 43.7148 222.259 44.3486 222.259 45.0662C222.259 45.7838 222.113 46.4175 221.822 46.9674C221.531 47.5172 221.126 47.9506 220.609 48.2674C220.092 48.575 219.5 48.7287 218.833 48.7287ZM218.833 47.9599C219.34 47.9599 219.787 47.8387 220.172 47.5964C220.558 47.3448 220.859 47.0046 221.075 46.5759C221.3 46.1379 221.413 45.6347 221.413 45.0662C221.413 44.4977 221.3 43.9991 221.075 43.5704C220.859 43.1324 220.553 42.7922 220.158 42.5499C219.763 42.2983 219.312 42.1724 218.804 42.1724C218.297 42.1724 217.846 42.2983 217.451 42.5499C217.065 42.7922 216.76 43.1324 216.534 43.5704C216.318 43.9991 216.21 44.4977 216.21 45.0662C216.21 45.6347 216.323 46.1379 216.548 46.5759C216.774 47.0046 217.084 47.3448 217.479 47.5964C217.874 47.8387 218.325 47.9599 218.833 47.9599ZM224.305 44.7307C224.305 43.9758 224.446 43.3654 224.728 42.8994C225.02 42.4334 225.391 42.0932 225.842 41.8789C226.303 41.6552 226.787 41.5434 227.295 41.5434V42.3122C226.881 42.3122 226.481 42.3868 226.096 42.5359C225.72 42.6757 225.41 42.918 225.165 43.2628C224.921 43.5983 224.799 44.0597 224.799 44.6468L224.305 44.7307ZM223.953 48.561V41.5713H224.799V48.561H223.953ZM232.375 48.561V38.7755H238.057V39.5863H233.277V43.3188H237.578V44.1296H233.277V48.561H232.375ZM239.68 48.561V41.5713H240.526V48.561H239.68ZM240.117 39.754C239.967 39.754 239.835 39.6981 239.722 39.5863C239.609 39.4744 239.553 39.344 239.553 39.1949C239.553 39.0364 239.609 38.9059 239.722 38.8034C239.835 38.6916 239.967 38.6357 240.117 38.6357C240.277 38.6357 240.408 38.6916 240.512 38.8034C240.625 38.9059 240.681 39.0364 240.681 39.1949C240.681 39.344 240.625 39.4744 240.512 39.5863C240.408 39.6981 240.277 39.754 240.117 39.754ZM242.722 48.561V41.5713H243.511L243.568 42.8574V48.561H242.722ZM254.915 48.561L254.844 47.5125V44.8145C254.844 44.2181 254.774 43.7288 254.633 43.3467C254.501 42.9553 254.29 42.6617 253.998 42.466C253.716 42.2703 253.345 42.1724 252.884 42.1724C252.461 42.1724 252.104 42.2563 251.813 42.4241C251.531 42.5918 251.296 42.8528 251.108 43.2069L250.346 42.8714C250.544 42.5359 250.765 42.261 251.009 42.0466C251.263 41.8323 251.545 41.6739 251.855 41.5713C252.165 41.4595 252.508 41.4036 252.884 41.4036C253.514 41.4036 254.036 41.5294 254.45 41.781C254.863 42.0327 255.173 42.4101 255.38 42.9134C255.587 43.4166 255.69 44.0503 255.69 44.8145V48.561H254.915ZM252.743 48.7287C251.916 48.7287 251.267 48.5424 250.797 48.1696C250.337 47.7875 250.107 47.2609 250.107 46.5899C250.107 45.9003 250.337 45.3644 250.797 44.9823C251.267 44.6002 251.916 44.4091 252.743 44.4091H254.858V45.178H252.856C252.179 45.178 251.691 45.3038 251.39 45.5554C251.098 45.7977 250.953 46.1426 250.953 46.5899C250.953 47.0186 251.103 47.3541 251.404 47.5964C251.714 47.8387 252.142 47.9599 252.687 47.9599C253.138 47.9599 253.524 47.8713 253.843 47.6943C254.172 47.5079 254.421 47.2376 254.591 46.8835C254.76 46.5293 254.844 46.0913 254.844 45.5694H255.338C255.338 46.52 255.108 47.2842 254.647 47.862C254.196 48.4398 253.561 48.7287 252.743 48.7287ZM257.594 48.561V41.5713H258.383L258.44 42.8574V48.561H257.594ZM268.447 48.7287C267.77 48.7287 267.169 48.575 266.642 48.2674C266.125 47.9506 265.716 47.5172 265.416 46.9674C265.124 46.4175 264.979 45.7838 264.979 45.0662C264.979 44.3486 265.124 43.7148 265.416 43.165C265.707 42.6151 266.111 42.1864 266.628 41.8789C267.155 41.562 267.752 41.4036 268.419 41.4036C269.087 41.4036 269.679 41.5527 270.196 41.8509C270.713 42.1398 271.112 42.5452 271.394 43.0671L270.661 43.4585C270.445 43.0578 270.139 42.7456 269.745 42.5219C269.359 42.2889 268.917 42.1724 268.419 42.1724C267.911 42.1724 267.46 42.2983 267.065 42.5499C266.68 42.7922 266.374 43.1324 266.149 43.5704C265.933 43.9991 265.825 44.4977 265.825 45.0662C265.825 45.6347 265.937 46.1379 266.163 46.5759C266.389 47.0046 266.699 47.3448 267.094 47.5964C267.488 47.8387 267.94 47.9599 268.447 47.9599C268.955 47.9599 269.406 47.8341 269.801 47.5824C270.196 47.3215 270.497 46.9627 270.703 46.506L271.451 46.8975C271.169 47.4659 270.765 47.9133 270.238 48.2395C269.721 48.5657 269.124 48.7287 268.447 48.7287ZM273.059 48.561V41.5713H273.905V48.561H273.059ZM273.496 39.754C273.346 39.754 273.214 39.6981 273.101 39.5863C272.989 39.4744 272.932 39.344 272.932 39.1949C272.932 39.0364 272.989 38.9059 273.101 38.8034C273.214 38.6916 273.346 38.6357 273.496 38.6357C273.656 38.6357 273.788 38.6916 273.891 38.8034C274.004 38.9059 274.06 39.0364 274.06 39.1949C274.06 39.344 274.004 39.4744 273.891 39.5863C273.788 39.6981 273.656 39.754 273.496 39.754ZM276.101 48.561V41.5713H276.891L276.947 42.8574V48.561H276.101ZM286.602 51.5246C286.179 51.5246 285.789 51.478 285.432 51.3848C285.075 51.2916 284.774 51.1891 284.529 51.0773C284.285 50.9748 284.116 50.9002 284.022 50.8536L284.332 50.1546C284.445 50.2199 284.614 50.2991 284.84 50.3923C285.075 50.4948 285.342 50.5787 285.643 50.6439C285.954 50.7185 286.273 50.7557 286.602 50.7557C287.091 50.7557 287.528 50.6579 287.914 50.4622C288.299 50.2665 288.6 49.9589 288.816 49.5395C289.042 49.1202 289.154 48.5796 289.154 47.9179V41.5713H290V47.9179C290 48.7287 289.845 49.3998 289.535 49.931C289.234 50.4715 288.825 50.8722 288.308 51.1332C287.791 51.3941 287.223 51.5246 286.602 51.5246ZM286.673 48.561C286.052 48.561 285.502 48.4072 285.023 48.0997C284.543 47.7921 284.167 47.3681 283.895 46.8276C283.622 46.2777 283.486 45.6533 283.486 44.9543C283.486 44.2554 283.622 43.6403 283.895 43.1091C284.167 42.5778 284.543 42.1631 285.023 41.8649C285.502 41.5574 286.052 41.4036 286.673 41.4036C287.274 41.4036 287.801 41.5574 288.252 41.8649C288.713 42.1631 289.07 42.5778 289.324 43.1091C289.587 43.6403 289.718 44.2554 289.718 44.9543C289.718 45.6533 289.587 46.2777 289.324 46.8276C289.07 47.3681 288.713 47.7921 288.252 48.0997C287.801 48.4072 287.274 48.561 286.673 48.561ZM286.842 47.8201C287.293 47.8201 287.693 47.6989 288.04 47.4566C288.388 47.205 288.661 46.8648 288.858 46.4361C289.056 46.0074 289.154 45.5135 289.154 44.9543C289.154 44.4045 289.056 43.9199 288.858 43.5005C288.661 43.0718 288.388 42.7363 288.04 42.494C287.693 42.2517 287.288 42.1305 286.828 42.1305C286.339 42.1305 285.907 42.2517 285.53 42.494C285.154 42.7363 284.858 43.0718 284.642 43.5005C284.435 43.9199 284.332 44.4045 284.332 44.9543C284.332 45.5135 284.44 46.0074 284.656 46.4361C284.872 46.8648 285.169 47.205 285.545 47.4566C285.921 47.6989 286.353 47.8201 286.842 47.8201Z" stroke="white" stroke-width="0.5"/>
<path d="M22.6357 38.883C22.6357 42.8064 21.6695 45.8297 19.7372 47.9529C17.8049 50.03 14.9984 51.0685 11.3178 51.0685C7.63724 51.0685 4.83078 50.03 2.89847 47.9529C0.966157 45.8297 0 42.8064 0 38.883V13.6812C0 9.75786 0.966157 6.75764 2.89847 4.68057C4.83078 2.55734 7.63724 1.49573 11.3178 1.49573C14.9984 1.49573 17.8049 2.55734 19.7372 4.68057C21.6695 6.75764 22.6357 9.75786 22.6357 13.6812V18.3892H15.4585V13.1966C15.4585 10.0117 14.1473 8.4193 11.5249 8.4193C8.90244 8.4193 7.59123 10.0117 7.59123 13.1966V39.3677C7.59123 42.5064 8.90244 44.0757 11.5249 44.0757C14.1473 44.0757 15.4585 42.5064 15.4585 39.3677V32.4441H22.6357V38.883Z" fill="white"/>
<path d="M45.2535 22.4742V29.3977H34.8328V43.5911H47.945V50.5146H27.2416V2.04961H47.945V8.97319H34.8328V22.4742H45.2535Z" fill="white"/>
<path d="M59.4122 50.5146H52.58V2.04961H62.1036L69.9019 31.0594V2.04961H76.6649V50.5146H68.8667L59.4122 15.4121V50.5146Z" fill="white"/>
<path d="M103.356 2.04961V8.97319H95.4193V50.5146H87.828V8.97319H79.8918V2.04961H103.356Z" fill="white"/>
<path d="M124.711 22.4742V29.3977H114.29V43.5911H127.402V50.5146H106.699V2.04961H127.402V8.97319H114.29V22.4742H124.711Z" fill="white"/>
<path d="M149.497 23.5819V30.5055H139.697V50.5146H132.106V2.04961H152.189V8.97319H139.697V23.5819H149.497Z" fill="white"/>
<rect x="173.01" y="1" width="0.991456" height="51.06" fill="#57C7F4"/>
</svg>
