<svg xmlns="http://www.w3.org/2000/svg" viewBox="0 0 777 298" width="777" height="298">
  <path d="M 608 119 L 604 129 L 617 131 L 621 136 L 619 241 L 626 239 L 647 225 L 642 208 L 642 184 L 645 180 L 650 180 L 655 184 L 683 239 L 695 256 L 706 267 L 726 279 L 740 283 L 759 282 L 774 274 L 774 272 L 764 274 L 751 273 L 736 267 L 719 253 L 707 236 L 678 170 L 682 164 L 697 152 L 703 140 L 703 128 L 694 116 L 681 111 L 619 111 Z M 643 132 L 646 129 L 666 129 L 677 132 L 682 138 L 682 145 L 678 154 L 665 164 L 644 170 Z" fill="#000" fill-rule="evenodd"/>
  <path d="M 587 109 L 580 110 L 555 127 L 555 130 L 560 131 L 565 138 L 564 242 L 568 242 L 596 224 L 589 208 L 590 114 Z" fill="#000" fill-rule="evenodd"/>
  <path d="M 306 124 L 303 130 L 314 130 L 316 132 L 317 208 L 325 228 L 332 235 L 340 239 L 352 240 L 364 235 L 382 219 L 385 219 L 389 236 L 395 239 L 415 225 L 408 204 L 408 109 L 376 126 L 376 130 L 380 131 L 385 138 L 385 201 L 375 213 L 366 217 L 359 217 L 350 213 L 344 204 L 339 178 L 340 110 L 333 109 Z" fill="#000" fill-rule="evenodd"/>
  <path d="M 521 112 L 511 108 L 499 109 L 485 116 L 466 132 L 463 132 L 462 113 L 460 109 L 455 109 L 429 127 L 429 130 L 437 137 L 439 148 L 438 239 L 465 224 L 462 213 L 462 151 L 472 138 L 488 130 L 500 133 L 506 139 L 510 150 L 509 238 L 514 240 L 540 223 L 535 212 L 532 192 L 533 130 L 529 120 Z" fill="#000" fill-rule="evenodd"/>
  <path d="M 579 44 L 574 54 L 574 63 L 565 65 L 561 73 L 577 93 L 582 96 L 600 74 L 600 69 L 594 64 L 587 63 L 586 51 Z" fill="#000" fill-rule="evenodd"/>
  <path d="M 2 188 L 2 208 L 5 221 L 13 236 L 23 245 L 38 251 L 52 252 L 68 249 L 88 240 L 114 216 L 125 200 L 136 178 L 148 138 L 151 93 L 154 92 L 166 111 L 184 152 L 190 172 L 188 204 L 193 215 L 201 219 L 206 215 L 210 207 L 214 190 L 214 170 L 210 151 L 223 126 L 241 101 L 255 87 L 268 79 L 269 84 L 261 110 L 256 143 L 255 180 L 258 205 L 265 231 L 277 256 L 285 267 L 306 285 L 329 294 L 362 295 L 440 275 L 485 269 L 537 271 L 609 283 L 609 281 L 565 264 L 515 254 L 480 254 L 459 257 L 390 276 L 369 279 L 350 278 L 339 275 L 324 267 L 312 256 L 298 233 L 285 190 L 282 167 L 282 140 L 286 106 L 290 88 L 298 69 L 307 60 L 316 55 L 335 49 L 355 46 L 359 35 L 359 28 L 355 24 L 342 24 L 315 32 L 271 55 L 238 87 L 209 133 L 206 134 L 181 80 L 144 28 L 130 14 L 118 6 L 104 2 L 88 5 L 78 11 L 72 17 L 72 20 L 87 23 L 110 37 L 136 65 L 142 82 L 142 125 L 135 154 L 127 174 L 109 202 L 97 214 L 77 226 L 65 229 L 52 229 L 32 221 L 23 211 L 17 193 L 18 172 L 26 155 L 33 149 L 43 145 L 52 145 L 60 148 L 68 155 L 73 165 L 74 177 L 72 185 L 75 185 L 83 178 L 93 158 L 91 140 L 82 129 L 70 124 L 53 124 L 37 130 L 19 146 L 8 166 Z" fill="#000" fill-rule="evenodd"/>
</svg>
